name baseline.mot
datacolumns 19
datarows 35
range 6.56330500000000 6.61997600000000
endheader
time	ground_force1_vx	ground_force1_vy	ground_force1_vz	ground_force1_px	ground_force1_py	ground_force1_pz	ground_force2_vx	ground_force2_vy	ground_force2_vz	ground_force2_px	ground_force2_py	ground_force2_pz	ground_torque1_x	ground_torque1_y	ground_torque1_z	ground_torque2_x	ground_torque2_y	ground_torque2_z	
6.56330500000000	-58.39561200000000	775.18625199999997	65.00007600000001	-0.02633200000000	0.00000000000000	0.14953500000000	-4.97231200000000	20.71473200000000	3.95427400000000	0.00000000000000	0.00000000000000	0.00000000000000	0.00000000000000	16.54116300000000	0.00000000000000	0.00000000000000	0.92924000000000	0.00000000000000	
6.56497100000000	-59.07580700000000	774.15615000000003	64.86823699999999	-0.02732600000000	0.00000000000000	0.14945100000000	-5.99728200000000	26.40615500000000	4.91632400000000	0.25368700000000	0.00000000000000	-0.09467500000000	0.00000000000000	16.58424000000000	0.00000000000000	0.00000000000000	1.84922700000000	0.00000000000000	
6.56666100000000	-59.76606000000000	773.05865200000005	64.72151599999999	-0.02832000000000	0.00000000000000	0.14936600000000	-6.98887300000000	32.45754000000000	5.90132800000000	0.25631500000000	0.00000000000000	-0.09544000000000	0.00000000000000	16.63061500000000	0.00000000000000	0.00000000000000	2.26675900000000	0.00000000000000	
6.56830500000000	-60.46656500000000	771.89137300000004	64.55960399999999	-0.02931400000000	0.00000000000000	0.14927800000000	-7.90799000000000	38.74650300000000	6.88132000000000	0.25869900000000	0.00000000000000	-0.09613200000000	0.00000000000000	16.68048300000000	0.00000000000000	0.00000000000000	2.69731900000000	0.00000000000000	
6.56998100000000	-61.17747400000000	770.65186500000004	64.38220600000000	-0.03030700000000	0.00000000000000	0.14918800000000	-8.71942700000000	45.15355100000000	7.82987300000000	0.26087900000000	0.00000000000000	-0.09676100000000	0.00000000000000	16.73402600000000	0.00000000000000	0.00000000000000	3.13147700000000	0.00000000000000	
6.57163900000000	-61.89888800000000	769.33761800000002	64.18904100000000	-0.03130000000000	0.00000000000000	0.14909500000000	-9.39414500000000	51.57103100000000	8.72387700000000	0.26288700000000	0.00000000000000	-0.09733800000000	0.00000000000000	16.79141400000000	0.00000000000000	0.00000000000000	3.56064400000000	0.00000000000000	
6.57330900000000	-62.63085900000000	767.94606299999998	63.97984400000000	-0.03229100000000	0.00000000000000	0.14900000000000	-9.91080500000000	57.91003000000000	9.54484300000000	0.26475000000000	0.00000000000000	-0.09787000000000	0.00000000000000	16.85280400000000	0.00000000000000	0.00000000000000	3.97759100000000	0.00000000000000	
6.57498000000000	-63.37338500000000	766.47457599999996	63.75436800000000	-0.03328200000000	0.00000000000000	0.14890300000000	-10.25646000000000	64.10476700000000	10.27964700000000	0.26648800000000	0.00000000000000	-0.09836400000000	0.00000000000000	16.91833600000000	0.00000000000000	0.00000000000000	4.37679400000000	0.00000000000000	
6.57665300000000	-64.12640800000000	764.92047700000001	63.51237900000000	-0.03427100000000	0.00000000000000	0.14880300000000	-10.42645900000000	70.11439200000000	10.92072000000000	0.26811700000000	0.00000000000000	-0.09882400000000	0.00000000000000	16.98813400000000	0.00000000000000	0.00000000000000	4.75457600000000	0.00000000000000	
6.57830700000000	-64.88981400000000	763.28103699999997	63.25366700000000	-0.03525800000000	0.00000000000000	0.14870100000000	-10.42369800000000	75.92244100000001	11.46575600000000	0.26965000000000	0.00000000000000	-0.09925500000000	0.00000000000000	17.06230800000000	0.00000000000000	0.00000000000000	5.10908300000000	0.00000000000000	
6.57998000000000	-65.66342600000000	761.55348200000003	62.97803700000000	-0.03624300000000	0.00000000000000	0.14859600000000	-10.25736400000000	81.53438400000000	11.91703800000000	0.27110000000000	0.00000000000000	-0.09966100000000	0.00000000000000	17.14094600000000	0.00000000000000	0.00000000000000	5.44010200000000	0.00000000000000	
6.58166600000000	-66.44700500000000	759.73499700000002	62.68531600000000	-0.03722700000000	0.00000000000000	0.14849000000000	-9.94139600000000	86.97378700000000	12.28050700000000	0.27247400000000	0.00000000000000	-0.10004400000000	0.00000000000000	17.22411800000000	0.00000000000000	0.00000000000000	5.74878600000000	0.00000000000000	
6.58330700000000	-67.24024799999999	757.82272699999999	62.37535200000000	-0.03820700000000	0.00000000000000	0.14838000000000	-9.49280300000000	92.27766099999999	12.56468800000000	0.27378000000000	0.00000000000000	-0.10040900000000	0.00000000000000	17.31187400000000	0.00000000000000	0.00000000000000	6.03730800000000	0.00000000000000	
6.58498600000000	-68.04278400000000	755.81378600000005	62.04801300000000	-0.03918600000000	0.00000000000000	0.14826900000000	-8.93003200000000	97.49151000000001	12.77960200000000	0.27502500000000	0.00000000000000	-0.10075600000000	0.00000000000000	17.40424300000000	0.00000000000000	0.00000000000000	6.30849200000000	0.00000000000000	
6.58666600000000	-68.85417600000000	753.70526099999995	61.70319000000000	-0.04016200000000	0.00000000000000	0.14815500000000	-8.27149900000000	102.66455300000000	12.93573700000000	0.27621200000000	0.00000000000000	-0.10108700000000	0.00000000000000	17.50123100000000	0.00000000000000	0.00000000000000	6.56545200000000	0.00000000000000	
6.58831100000000	-69.67391200000000	751.49421800000005	61.34079800000000	-0.04113500000000	0.00000000000000	0.14803900000000	-7.53436200000000	107.84545100000000	13.04316600000000	0.27734600000000	0.00000000000000	-0.10140600000000	0.00000000000000	17.60282300000000	0.00000000000000	0.00000000000000	6.81127400000000	0.00000000000000	
6.59000600000000	-70.50141400000000	749.17770599999994	60.96077500000000	-0.04210500000000	0.00000000000000	0.14792100000000	-6.73361200000000	113.07879900000000	13.11084500000000	0.27843000000000	0.00000000000000	-0.10171300000000	0.00000000000000	17.70897800000000	0.00000000000000	0.00000000000000	7.04874700000000	0.00000000000000	
6.59166300000000	-71.33602800000000	746.75276599999995	60.56308300000000	-0.04307200000000	0.00000000000000	0.14780100000000	-5.88147800000000	118.40252599999999	13.14612100000000	0.27946700000000	0.00000000000000	-0.10200900000000	0.00000000000000	17.81963200000000	0.00000000000000	0.00000000000000	7.28016600000000	0.00000000000000	
6.59331000000000	-72.17702400000000	744.21643700000004	60.14770800000000	-0.04403700000000	0.00000000000000	0.14767900000000	-4.98714800000000	123.84622200000000	13.15444400000000	0.28045800000000	0.00000000000000	-0.10229600000000	0.00000000000000	17.93469800000000	0.00000000000000	0.00000000000000	7.50720900000000	0.00000000000000	
6.59499000000000	-73.02360000000000	741.56575899999996	59.71466000000000	-0.04499800000000	0.00000000000000	0.14755500000000	-4.05676000000000	129.43037400000000	13.13928000000000	0.28140500000000	0.00000000000000	-0.10257500000000	0.00000000000000	18.05406100000000	0.00000000000000	0.00000000000000	7.73087300000000	0.00000000000000	
6.59666800000000	-73.87487700000000	738.79778899999997	59.26397600000000	-0.04595700000000	0.00000000000000	0.14742900000000	-3.09362900000000	135.16638900000001	13.10217700000000	0.28231000000000	0.00000000000000	-0.10284700000000	0.00000000000000	18.17758200000000	0.00000000000000	0.00000000000000	7.95148400000000	0.00000000000000	
6.59830700000000	-74.72990000000000	735.90959699999996	58.79571600000000	-0.04691300000000	0.00000000000000	0.14730100000000	-2.09864100000000	141.05726899999999	13.04297500000000	0.28317300000000	0.00000000000000	-0.10311200000000	0.00000000000000	18.30509700000000	0.00000000000000	0.00000000000000	8.16874200000000	0.00000000000000	
6.59998300000000	-75.58763399999999	732.89828499999999	58.30996700000000	-0.04786600000000	0.00000000000000	0.14717100000000	-1.07074600000000	147.09875900000000	12.96009700000000	0.28399500000000	0.00000000000000	-0.10337200000000	0.00000000000000	18.43641600000000	0.00000000000000	0.00000000000000	8.38181800000000	0.00000000000000	
6.60166200000000	-76.44697200000000	729.76098700000000	57.80684200000000	-0.04881700000000	0.00000000000000	0.14704000000000	-0.00752200000000	153.28080299999999	12.85089700000000	0.28477700000000	0.00000000000000	-0.10362700000000	0.00000000000000	18.57132100000000	0.00000000000000	0.00000000000000	8.58946300000000	0.00000000000000	
6.60331800000000	-77.30672600000000	726.49487899999997	57.28647500000000	-0.04976600000000	0.00000000000000	0.14690700000000	1.09428200000000	159.58913200000001	12.71202300000000	0.28551700000000	0.00000000000000	-0.10387700000000	0.00000000000000	18.70957100000000	0.00000000000000	0.00000000000000	8.79013600000000	0.00000000000000	
6.60498100000000	-78.16563600000001	723.09718799999996	56.74903100000000	-0.05071200000000	0.00000000000000	0.14677200000000	2.23822700000000	166.00685899999999	12.53976700000000	0.28621800000000	0.00000000000000	-0.10412300000000	0.00000000000000	18.85089800000000	0.00000000000000	0.00000000000000	8.98212800000000	0.00000000000000	
6.60665500000000	-79.02236400000000	719.56520300000000	56.19469600000000	-0.05165700000000	0.00000000000000	0.14663700000000	3.42774000000000	172.51594399999999	12.33038500000000	0.28687800000000	0.00000000000000	-0.10436600000000	0.00000000000000	18.99500900000000	0.00000000000000	0.00000000000000	9.16367800000000	0.00000000000000	
6.60830300000000	-79.87549799999999	715.89627499999995	55.62368200000000	-0.05260000000000	0.00000000000000	0.14650000000000	4.66576900000000	179.09846200000001	12.08035600000000	0.28749700000000	0.00000000000000	-0.10460500000000	0.00000000000000	19.14158700000000	0.00000000000000	0.00000000000000	9.33307500000000	0.00000000000000	
6.60999900000000	-80.72355399999999	712.08783600000004	55.03622500000000	-0.05354100000000	0.00000000000000	0.14636100000000	5.95452100000000	185.73760600000000	11.78658700000000	0.28807600000000	0.00000000000000	-0.10484300000000	0.00000000000000	19.29028900000000	0.00000000000000	0.00000000000000	9.48873700000000	0.00000000000000	
6.61165300000000	-81.56497800000000	708.13739899999996	54.43258700000000	-0.05448200000000	0.00000000000000	0.14622200000000	7.29531000000000	192.41842199999999	11.44655000000000	0.28861400000000	0.00000000000000	-0.10507700000000	0.00000000000000	19.44074900000000	0.00000000000000	0.00000000000000	9.62926900000000	0.00000000000000	
6.61331500000000	-82.39814500000000	704.04257399999995	53.81305200000000	-0.05542200000000	0.00000000000000	0.14608200000000	8.68849400000000	199.12825200000000	11.05835800000000	0.28911000000000	0.00000000000000	-0.10531000000000	0.00000000000000	19.59257800000000	0.00000000000000	0.00000000000000	9.75350400000000	0.00000000000000	
6.61499800000000	-83.22136700000000	699.80107099999998	53.17792800000000	-0.05636200000000	0.00000000000000	0.14594100000000	10.13348800000000	205.85693100000000	10.62078800000000	0.28956500000000	0.00000000000000	-0.10554000000000	0.00000000000000	19.74536500000000	0.00000000000000	0.00000000000000	9.86051600000000	0.00000000000000	
6.61667300000000	-84.03288900000000	695.41071399999998	52.52754600000000	-0.05730200000000	0.00000000000000	0.14579900000000	11.62883600000000	212.59675999999999	10.13325700000000	0.28997800000000	0.00000000000000	-0.10576900000000	0.00000000000000	19.89867600000000	0.00000000000000	0.00000000000000	9.94961900000000	0.00000000000000	
6.61830500000000	-84.83090000000000	690.86945000000003	51.86226100000000	-0.05824200000000	0.00000000000000	0.14565700000000	13.17233700000000	219.34231600000001	9.59576300000000	0.29034900000000	0.00000000000000	-0.10599700000000	0.00000000000000	20.05205900000000	0.00000000000000	0.00000000000000	10.02035700000000	0.00000000000000	
6.61997600000000	-85.61352800000000	686.17535799999996	51.18244700000000	-0.05918400000000	0.00000000000000	0.14551400000000	14.76118800000000	226.09012799999999	9.00880100000000	0.29067800000000	0.00000000000000	-0.10622300000000	0.00000000000000	20.20504200000000	0.00000000000000	0.00000000000000	10.07247800000000	0.00000000000000	
